<?xml version="1.0" encoding="UTF-8" standalone="no"?>
<svg
   xmlns:dc="http://purl.org/dc/elements/1.1/"
   xmlns:cc="http://creativecommons.org/ns#"
   xmlns:rdf="http://www.w3.org/1999/02/22-rdf-syntax-ns#"
   xmlns:svg="http://www.w3.org/2000/svg"
   xmlns="http://www.w3.org/2000/svg"
   xmlns:xlink="http://www.w3.org/1999/xlink"
   xmlns:sodipodi="http://sodipodi.sourceforge.net/DTD/sodipodi-0.dtd"
   xmlns:inkscape="http://www.inkscape.org/namespaces/inkscape"
   height="278.26443"
   width="279.11362"
   inkscape:version="1.0 (6e3e5246a0, 2020-05-07)"
   version="1.1"
   viewBox="0 0 279.11362 278.26443"
   sodipodi:docname="cog.svg"
   id="svg2">
  <defs
     id="defs4">
    <clipPath
       clipPathUnits="userSpaceOnUse"
       id="clipPath2991">
      <ellipse
         ry="265.71429"
         rx="590"
         cy="54.285713"
         cx="158.57143"
         transform="translate(191.43,352.36)"
         style="fill:#dbdee3"
         id="path2993" />
    </clipPath>
    <linearGradient
       id="linearGradient3193">
      <stop
         offset="0"
         stop-color="#ffffff"
         id="stop3195" />
      <stop
         offset="1"
         stop-color="#ffffff"
         stop-opacity="0"
         id="stop3197" />
    </linearGradient>
    <radialGradient
       inkscape:collect="always"
       r="56.791"
       gradientTransform="matrix(1.3326,-7.2283e-5,7.0825e-5,1.3057,-19.106,-0.21422)"
       cx="62.160999"
       cy="1.2972"
       gradientUnits="userSpaceOnUse"
       xlink:href="#linearGradient3193"
       id="radialGradient3967" />
  </defs>
  <sodipodi:namedview
     fit-margin-bottom="0"
     fit-margin-right="0"
     fit-margin-left="0"
     fit-margin-top="0"
     inkscape:document-rotation="0"
     inkscape:document-units="px"
     inkscape:pageopacity="0.0"
     inkscape:window-width="1360"
     inkscape:cy="234.0491"
     inkscape:cx="-259.77751"
     inkscape:current-layer="layer1"
     borderopacity="1.0"
     showgrid="false"
     inkscape:window-x="0"
     inkscape:zoom="0.49497475"
     inkscape:window-maximized="1"
     inkscape:window-height="699"
     pagecolor="#ffffff"
     inkscape:window-y="0"
     inkscape:pageshadow="2"
     bordercolor="#666666"
     id="base" />
  <g
     transform="translate(-192.25813,-540.25562)"
     inkscape:groupmode="layer"
     inkscape:label="Layer 1"
     id="layer1">
    <g
       style="fill:#0f91fa;fill-opacity:1"
       transform="translate(27.015,-46.874)"
       id="g3950">
      <g
         transform="matrix(2.3738,0,0,2.3738,149.71572,575.12152)"
         style="fill:#0f91fa;fill-opacity:1"
         id="g3469">
        <path
           inkscape:connector-curvature="0"
           style="fill:#0f91fa;fill-opacity:1"
           d="M 81.531,5.0625 C 80.012,5.0317 78.46,5.7475 77.625,6.9688 a 3.4674,3.4674 0 0 0 0,0.0312 l -8.9375,13.125 c -2.3937,-0.20588 -4.8155,-0.20043 -7.25,0 L 52.1555,7.531 c -1.121,-1.5253 -3.477,-2.2334 -5.312,-1.4685 l -10.438,4.3438 c -1.9695,0.82084 -3.0984,2.8773 -2.6875,5 l 2.875,15.031 c -1.767,1.528 -3.373,3.189 -4.843,4.938 L 16.125,33.0315 h -0.03125 c -1.8749,-0.27105 -3.9845,0.69149 -4.8125,2.6875 l -4.3445,10.438 a 3.4674,3.4674 0 0 0 -0.0313,0.032 c -0.8825,2.1308 -0.10063,4.2603 1.6875,5.4688 l 12.938,8.7188 c -0.16859,2.5882 -0.10551,5.1752 0.1875,7.75 l -12.282,8.936 A 3.4674,3.4674 0 0 0 9.4052,77.09385 c -1.6433,1.2066 -2.3621,3.3064 -1.5,5.375 l 1.8432,4.47 0.03125,0.03125 1.8125,4.4375 a 3.4674,3.4674 0 0 0 0.031,0.031 c 0.91554,2.1967 2.812,3.0491 4.9062,2.7188 a 3.4674,3.4674 0 0 0 0.03125,0 l 15,-2.4062 c 1.6227,2.008 3.4024,3.849 5.3438,5.5312 l -2.906,15.308 c -0.401,2.1229 0.59804,4.1948 2.7188,5.0625 l 10.469,4.2812 c 2.048,0.83657 4.159,0.10436 5.375,-1.5625 l 9.3125,-12.719 c 2.2606,0.18877 4.5572,0.17482 6.875,0 l 8.6562,12.656 c 1.2552,1.8403 3.4773,2.4368 5.5,1.5938 l 10.438,-4.3438 c 1.9966,-0.83213 2.9879,-2.9352 2.6875,-4.8438 l -2.407,-15.439 c 1.8564,-1.5924 3.5566,-3.3113 5.0938,-5.1562 l 15.594,2.9375 a 3.4674,3.4674 0 0 0 0.0312,0 c 1.9691,0.36124 3.9775,-0.77782 4.8125,-2.5 l 0.0312,0.03125 0.0312,-0.0625 a 3.4674,3.4674 0 0 0 0.0625,-0.15625 3.4674,3.4674 0 0 0 0.0625,-0.09375 l 4.125,-10.125 0.04,-0.031 a 3.4674,3.4674 0 0 0 0.15625,-0.3125 c 0.11013,-0.26781 0.22549,-0.63633 0.28125,-1 0.2731,-1.7804 -0.51762,-3.3743 -1.8438,-4.3438 l -12.938,-9.4375 c 0.19973,-2.0834 0.23334,-4.1852 0.125,-6.3125 l 12.875,-8.8438 c 0.0128,-0.0087 0.0186,-0.02247 0.0312,-0.03125 1.8824,-1.3089 2.3491,-3.5814 1.5625,-5.4688 l -2.4688,-5.9375 -2.4688,-5.9062 c -0.80024,-1.9201 -2.7292,-3.159 -5,-2.7188 l -15.341,2.939 c -1.429,-1.574 -2.974,-3.013 -4.594,-4.344 l 2.4375,-15.875 c 0.274,-1.813 -0.548,-3.402 -1.843,-4.343 -0.44,-0.3205 -0.909,-0.5014 -0.907,-0.5005 a 3.4674,3.4674 0 0 0 -0.093,-0.0313 l -0.125,-0.03125 -10,-4.125 -0.0625,-0.03125 a 3.4674,3.4674 0 0 0 -0.187,-0.0938 3.4674,3.4674 0 0 0 -0.063,-0.0312 c -0.47,-0.1913 -0.993,-0.271 -1.5,-0.2813 z m -15.937,42.188 c 6.4132,0.03496 12.524,3.8105 15.156,10.125 3.5098,8.421 -0.47978,18.019 -8.9062,21.531 -8.4266,3.5121 -18.02,-0.45086 -21.531,-8.875 -3.5121,-8.4266 0.45086,-18.02 8.875,-21.531 2.096,-0.8736 4.265,-1.2617 6.4062,-1.25 z"
           id="path2419" />
        <path
           inkscape:connector-curvature="0"
           style="fill:#0f91fa;fill-opacity:1"
           d="m 37.744,13.587 c -0.45202,0.18839 -0.7122,0.69424 -0.61935,1.174 l 3.2599,16.958 c -2.7751,2.1453 -5.2061,4.6548 -7.289,7.3761 l -17.49,-2.641 c -0.47099,-0.07154 -0.95736,0.18021 -1.1396,0.61958 l -4.3283,10.432 c -0.18756,0.45287 -0.016,1.0088 0.39029,1.2834 l 14.543,9.797 c -0.45196,3.6517 -0.32048,7.4392 0.26807,11.167 l -13.86,10.115 c -0.38399,0.28194 -0.57016,0.82936 -0.38661,1.2698 l 1.8657,4.4764 1.8657,4.4764 c 0.18355,0.4404 0.70339,0.69357 1.174,0.61934 l 16.941,-2.7225 c 2.2334,3.0426 4.8307,5.8024 7.7423,8.0522 l -3.2804,17.225 c -0.09102,0.48185 0.18302,0.99506 0.63669,1.1807 l 10.456,4.2702 c 0.44034,0.17987 0.96154,0.0117 1.2423,-0.37317 l 10.437,-14.279 c 3.399,0.43651 6.8927,0.47667 10.37,0.0161 l 9.7485,14.253 c 0.27532,0.40367 0.81775,0.575 1.2698,0.38661 l 10.431,-4.3475 c 0.4382,-0.18263 0.66952,-0.6448 0.59539,-1.1158 l -2.6781,-17.297 c 2.8627,-2.2111 5.3607,-4.7788 7.4841,-7.602 l 17.564,3.2838 c 0.4826,0.08853 0.95076,-0.16617 1.1396,-0.61958 l 0.0239,-0.05818 4.2462,-10.398 0.065,-0.0753 c 0.0306,-0.07431 0.0431,-0.13964 0.0547,-0.21562 0.0573,-0.3738 -0.0913,-0.75205 -0.41079,-0.98562 l -14.546,-10.615 c 0.4614,-3.2102 0.55698,-6.4885 0.21463,-9.7779 l 14.49,-9.886 c 0.40347,-0.275 0.51652,-0.84241 0.32842,-1.2937 l -2.4647,-5.9137 -2.4648,-5.9137 c -0.18809,-0.4513 -0.67065,-0.77047 -1.15,-0.67753 l -17.221,3.3215 c -2.0951,-2.5589 -4.4907,-4.7989 -7.0954,-6.7312 l 2.7019,-17.804 C 92.92811,13.60577 92.76409,13.23395 92.45825,13.01151 92.39609,12.9663 92.34087,12.9292 92.26658,12.89859 l -0.09925,-0.0068 -10.374,-4.3044 -0.05819,-0.023951 c -0.45495,-0.18508 -0.96544,-0.031897 -1.2423,0.37317 l -10.038,14.787 c -3.4999,-0.47948 -7.0821,-0.51301 -10.668,-0.03658 l -10.398,-14.078 c -0.2823,-0.38421 -0.77337,-0.54529 -1.2116,-0.36266 l -10.431,4.3475 z m 20.113,31.721 c 10.156,-4.2328 21.834,0.57431 26.066,10.73 4.2328,10.156 -0.57431,21.834 -10.73,26.066 C 63.037,86.3368 51.359,81.52969 47.127,71.374 42.8942,61.218 47.70131,49.54 57.857,45.308 Z"
           id="path2484" />
        <path
           inkscape:connector-curvature="0"
           style="fill:#0f91fa;fill-opacity:1"
           d="m 37.744,13.587 c -0.45202,0.18839 -0.7122,0.69424 -0.61935,1.174 l 3.2599,16.958 c -2.7751,2.1453 -5.2061,4.6548 -7.289,7.3761 l -17.49,-2.641 c -0.47099,-0.07154 -0.95736,0.18021 -1.1396,0.61958 l -4.3283,10.432 c -0.18756,0.45287 -0.016,1.0088 0.39029,1.2834 l 14.543,9.797 c -0.45196,3.6517 -0.32048,7.4392 0.26807,11.167 l -13.86,10.115 c -0.38399,0.28194 -0.57016,0.82936 -0.38661,1.2698 l 1.8657,4.4764 1.8657,4.4764 c 0.18355,0.4404 0.70339,0.69357 1.174,0.61934 l 16.941,-2.7225 c 2.2334,3.0426 4.8307,5.8024 7.7423,8.0522 l -3.2804,17.225 c -0.09102,0.48185 0.18302,0.99506 0.63669,1.1807 l 10.456,4.2702 c 0.44034,0.17987 0.96154,0.0117 1.2423,-0.37317 l 10.437,-14.279 c 3.399,0.43651 6.8927,0.47667 10.37,0.0161 l 9.7485,14.253 c 0.27532,0.40367 0.81775,0.575 1.2698,0.38661 l 10.431,-4.3475 c 0.4382,-0.18263 0.66952,-0.6448 0.59539,-1.1158 l -2.6781,-17.297 c 2.8627,-2.2111 5.3607,-4.7788 7.4841,-7.602 l 17.564,3.2838 c 0.4826,0.08853 0.95076,-0.16617 1.1396,-0.61958 l 0.0239,-0.05818 4.2462,-10.398 0.065,-0.0753 c 0.0306,-0.07431 0.0431,-0.13964 0.0547,-0.21562 0.0573,-0.3738 -0.0913,-0.75205 -0.41079,-0.98562 l -14.546,-10.615 c 0.4614,-3.2102 0.55698,-6.4885 0.21463,-9.7779 l 14.49,-9.886 c 0.40347,-0.275 0.51652,-0.84241 0.32842,-1.2937 l -2.4647,-5.9137 -2.4648,-5.9137 c -0.18809,-0.4513 -0.67065,-0.77047 -1.15,-0.67753 l -17.221,3.3215 c -2.0951,-2.5589 -4.4907,-4.7989 -7.0954,-6.7312 l 2.7019,-17.804 C 92.92811,13.60577 92.76409,13.23395 92.45825,13.01151 92.39609,12.9663 92.34087,12.9292 92.26658,12.89859 l -0.09925,-0.0068 -10.374,-4.3044 -0.05819,-0.023951 c -0.45495,-0.18508 -0.96544,-0.031897 -1.2423,0.37317 l -10.038,14.787 c -3.4999,-0.47948 -7.0821,-0.51301 -10.668,-0.03658 l -10.398,-14.078 c -0.2823,-0.38421 -0.77337,-0.54529 -1.2116,-0.36266 l -10.431,4.3475 z m 20.113,31.721 c 10.156,-4.2328 21.834,0.57431 26.066,10.73 4.2328,10.156 -0.57431,21.834 -10.73,26.066 C 63.037,86.3368 51.359,81.52969 47.127,71.374 42.8942,61.218 47.70131,49.54 57.857,45.308 Z"
           id="path3375" />
        <path
           inkscape:connector-curvature="0"
           style="fill:#0f91fa;fill-opacity:1;stroke:url(#radialGradient3967);stroke-width:3"
           d="M 81.562,10.219 71.75,24.625 a 1.5971,1.5971 0 0 1 -1.5312,0.6875 c -3.364,-0.46 -6.779,-0.488 -10.219,-0.031 a 1.5971,1.5971 0 0 1 -1.5,-0.656 l -10.125,-13.719 -9.5938,4 3.1562,16.5 a 1.5971,1.5971 0 0 1 -0.59375,1.5625 c -2.6544,2.052 -4.9613,4.471 -6.9688,7.0938 a 1.5971,1.5971 0 0 1 -1.5312,0.625 l -17.093,-2.562 -3.9688,9.5625 14.188,9.5938 a 1.5971,1.5971 0 0 1 0.6875,1.5 c -0.43038,3.4773 -0.31894,7.1149 0.25,10.719 a 1.5971,1.5971 0 0 1 -0.625,1.5312 l -13.531,9.875 1.688,4.094 a 1.5971,1.5971 0 0 1 0,0.03125 l 1.6875,4.0625 16.562,-2.6562 a 1.5971,1.5971 0 0 1 1.5312,0.625 c 2.1534,2.9336 4.6574,5.5706 7.4375,7.7188 a 1.5971,1.5971 0 0 1 0.59375,1.5625 l -3.1875,16.812 9.625,3.9375 10.219,-13.969 a 1.5971,1.5971 0 0 1 1.5,-0.65625 c 3.2799,0.4212 6.5825,0.47152 9.9062,0.0312 a 1.5971,1.5971 0 0 1 1.5312,0.6875 l 9.5,13.906 9.625,-4.0312 -2.625,-16.844 a 1.5971,1.5971 0 0 1 0.59375,-1.5 c 2.743,-2.1187 5.1459,-4.6294 7.1875,-7.3438 a 1.5971,1.5971 0 0 1 1.5625,-0.59375 l 17.125,3.2188 3.9688,-9.6875 -14.188,-10.344 a 1.5971,1.5971 0 0 1 -0.65625,-1.5 c 0.4442,-3.0906 0.54647,-6.2574 0.21875,-9.4062 a 1.5971,1.5971 0 0 1 0.6875,-1.4688 l 14.1,-9.647 -2.32,-5.532 -2.31,-5.531 -16.748,3.219 a 1.5971,1.5971 0 0 1 -1.562,-0.563 c -2.009,-2.454 -4.279,-4.612 -6.781,-6.469 a 1.5971,1.5971 0 0 1 -0.657,-1.531 l 2.657,-17.343 -9.657,-3.969 z M 65.625,42.188 C 74.016,42.23374 81.982,47.19 85.406,55.407 89.972,66.361 84.765,78.998 73.812,83.562 62.86,88.127 50.221,82.953 45.656,72 41.091,61.048 46.265,48.409 57.219,43.844 c 2.743,-1.143 5.611,-1.672 8.406,-1.656 z"
           id="path3201" />
      </g>
    </g>
  </g>
  <metadata
     id="metadata32">
    <rdf:RDF>
      <cc:Work>
        <dc:format>image/svg+xml</dc:format>
        <dc:type
           rdf:resource="http://purl.org/dc/dcmitype/StillImage" />
        <cc:license
           rdf:resource="http://creativecommons.org/publicdomain/zero/1.0/" />
        <dc:publisher>
          <cc:Agent
             rdf:about="http://openclipart.org/">
            <dc:title>Openclipart</dc:title>
          </cc:Agent>
        </dc:publisher>
        <dc:title></dc:title>
      </cc:Work>
      <cc:License
         rdf:about="http://creativecommons.org/publicdomain/zero/1.0/">
        <cc:permits
           rdf:resource="http://creativecommons.org/ns#Reproduction" />
        <cc:permits
           rdf:resource="http://creativecommons.org/ns#Distribution" />
        <cc:permits
           rdf:resource="http://creativecommons.org/ns#DerivativeWorks" />
      </cc:License>
    </rdf:RDF>
  </metadata>
</svg>
